<svg version="1.2" xmlns="http://www.w3.org/2000/svg" viewBox="0 0 539 432" width="539" height="432">
	<style>
		.s0 { fill: #fec01a }
		.s1 { fill: #fec11a }
		.s2 { fill: #242423 }
	</style>
	<path fill-rule="evenodd" class="s0" d="m263.7 33.4q0 51.2 0 102.5-46.9 0-93.8 0-4.9 0-9.8 0 0-51.3 0-102.5 51.8 0 103.6 0z"/>
	<path fill-rule="evenodd" class="s0" d="m128.9 33.4q0 51.2 0 102.5-46.9 0-93.8 0-4.8 0-9.7 0 0-51.3 0-102.5 51.7 0 103.5 0z"/>
	<path fill-rule="evenodd" class="s1" d="m358.4 32.4q82.7 1.5 166 1-0.4 2.8 1 4.9 0 1.9 0 3.9-4.7 25.3-8.8 50.7 0.2-1-0.5-1.9-70.5 1-137.2 1.9-0.5 1.3-2 1-22.6 4.9-28.8 27.4-18.9 118.8-40 237.3-7.6 28.1-32.7 42.5-4.2 2-8.8 2.4-18.3-1.2-37.1-1.5 1.9-1.1 1.9-3.4 5.9-6.7 10.3-14.6 5.2-15.3 6.3-31.3 20.9-126.5 39.6-253.9 5.1-19.4 17.1-35.1 16.3-17.2 38.1-26.4 7.5-3.3 15.6-4.9z"/>
	<path fill-rule="evenodd" class="s1" d="m404.3 139.8q51.9 1.5 104.5 1-0.4 3.3 0.9 5.9-3.8 24.2-8.7 47.8-1.5-0.1-1 2.9-33.7-0.3-67.4 0.5-0.8 0.6-1 1.5-7.1 2.5-10.2 9.8-3.7 14.4-5.4 29.3-0.8 2.3-1 4.8 0 0.5 0 1 37 1 74.2 2 0 0.5 0 0.9-4.7 25-8.8 49.9 0.2-1.6-0.4-3-0.4 2.9-1.5 5.4-36.1 0.5-72.3 1 36.5 0.3 72.3 1.4-36.1-0.5-72.3 1-4.1 23.9-8.3 47.9-3.2 29.4-27.8 44.9-0.1-0.8-1-1-16.3 9.3-35.1 7.8-6.9-0.5-13.7-1 1.7-2.4 3.9-4.4-0.9-0.6-2-0.4 11-12.1 13.2-28.4 14.7-98.7 30.3-197.2 6.2-20.6 25.9-28.3 6.1-2.2 12.7-3z"/>
	<path fill-rule="evenodd" class="s2" d="m24.4 165.2q53.7 0 107.4 0 0 53.2 0 106.5-53.7 0-107.4 0 0-53.3 0-106.5z"/>
	<path fill-rule="evenodd" class="s2" d="m24.4 298q53.7 0 107.4 0 0 53.3 0 106.5-53.7 0-107.4 0 0-53.3 0-106.5z"/>
	<path fill-rule="evenodd" class="s2" d="m158.2 298q41.5 0 83 0-4.3 33.7-9.3 67.4-6.1 27.2-31.7 37.6-20.9 2.1-42 1.5 0-53.3 0-106.5z"/>
</svg>