<svg viewBox="0 0 117 95" fill="none" xmlns="http://www.w3.org/2000/svg">
    <circle cx="83.9303" cy="7.09602" r="2.80037" fill="#E9DD9A" class="svg-elem-1"></circle>
    <circle cx="24.3169" cy="85.0371" r="2.45555" fill="#4956D1" class="svg-elem-2"></circle>
    <circle cx="93.8479" cy="13.5967" r="1.40015" fill="#AA4FEF" class="svg-elem-3"></circle>
    <path fill-rule="evenodd" clip-rule="evenodd"
        d="M42.4172 70.4954V38.9026C19.3481 51.4536 4.13786 65.5448 7.31987 72.184C9.92036 77.6098 24.0953 76.5779 42.4172 70.4954ZM72.6543 57.4552C96.9445 44.6193 113.227 29.8452 109.945 22.9979C107.241 17.3574 92.0299 18.6957 72.6543 25.4318V57.4552Z"
        fill="url(#paint0_radial_356_3087)" class="svg-elem-4"></path>
    <path fill-rule="evenodd" clip-rule="evenodd"
        d="M42.4165 94.6692H72.6536V57.4555C70.2335 58.7344 67.7338 59.994 65.166 61.2247C57.2481 65.0196 49.5206 68.1373 42.4165 70.4957V94.6692ZM42.4165 38.9029V0.513428H72.6536V25.4321C66.1642 27.6882 59.2076 30.5498 52.0975 33.9576C48.7461 35.5639 45.5106 37.2195 42.4165 38.9029Z"
        fill="url(#paint1_linear_356_3087)" class="svg-elem-5"></path>
    <path
        d="M7.51115 72.0917C6.65881 70.3133 7.18277 67.9184 8.98817 65.0577C10.7867 62.2079 13.822 58.9543 17.8661 55.5019C25.9517 48.5994 38.0316 40.9345 52.1894 34.1489C66.3473 27.3633 79.8889 22.7483 90.3343 20.7694C95.5586 19.7796 99.9961 19.4516 103.344 19.8348C106.705 20.2194 108.9 21.3111 109.752 23.0895C110.605 24.8679 110.081 27.2628 108.275 30.1234C106.477 32.9733 103.441 36.2269 99.3974 39.6792C91.3119 46.5818 79.2319 54.2467 65.0741 61.0323C50.9162 67.8178 37.3746 72.4329 26.9292 74.4118C21.7049 75.4016 17.2674 75.7295 13.9193 75.3464C10.5585 74.9618 8.3635 73.87 7.51115 72.0917Z"
        stroke="url(#paint2_linear_356_3087)" stroke-width="0.825538" class="svg-elem-6"></path>
    <defs>
        <radialGradient id="paint0_radial_356_3087" cx="0" cy="0" r="1"
            gradientUnits="userSpaceOnUse"
            gradientTransform="translate(82.7795 22.9129) rotate(142.358) scale(86.4582 63.6901)">
            <stop stop-color="#AA4FEF"></stop>
            <stop offset="1" stop-color="#4856D1"></stop>
        </radialGradient>
        <linearGradient id="paint1_linear_356_3087" x1="57.5392" y1="0.619812" x2="58.281"
            y2="94.6633" gradientUnits="userSpaceOnUse">
            <stop stop-color="#E9DD9A"></stop>
            <stop offset="1" stop-color="#30C9D3"></stop>
        </linearGradient>
        <linearGradient id="paint2_linear_356_3087" x1="65.166" y1="61.2241" x2="52.0975"
            y2="33.957" gradientUnits="userSpaceOnUse">
            <stop stop-color="white"></stop>
            <stop offset="0.473958" stop-color="white" stop-opacity="0.526042"></stop>
            <stop offset="1" stop-color="white" stop-opacity="0"></stop>
        </linearGradient>
    </defs>
</svg>