<svg version="1.2" xmlns="http://www.w3.org/2000/svg" viewBox="0 0 1254 1114" width="1254" height="1114">
	<title>New Project</title>
	<style>
		.s0 { fill: #001e35 } 
		.s1 { fill: #6aebb0 } 
		.s2 { fill: #014a36 } 
		.s3 { fill: #26625e } 
		.s4 { fill: #58c59b } 
		.s5 { fill: #045e59 } 
		.s6 { fill: #45a785 } 
		.s7 { fill: #1f6359 } 
		.s8 { fill: #51b691 } 
		.s9 { fill: #30826f } 
		.s10 { fill: #38957b } 
		.s11 { fill: #2a7065 } 
		.s12 { opacity: .8;fill: #76fdbc } 
		.s13 { fill: #57ae8b } 
		.s14 { opacity: .8;fill: #7802c0 } 
		.s15 { fill: #505f5b } 
		.s16 { fill: #e5615a } 
		.s17 { opacity: .6;fill: #7902c0 } 
		.s18 { opacity: .3;fill: #7a02c2 } 
	</style>
	<filter id="f0">
		<feFlood flood-color="#000000" flood-opacity="1" />
		<feBlend mode="normal" in2="SourceGraphic"/>
		<feComposite in2="SourceAlpha" operator="in" />
	</filter>
	<g id="Layer 1" filter="url(#f0)">
		<path id="Path 0" fill-rule="evenodd" class="s0" d="m327.1 47l578.4 0.1 34.6 60.2c27.4 47.7 35.1 60.3 36.8 60.4 1.7 0.3 2.2 1.1 2.4 4.5 0.3 3.6 17.8 34.5 107.5 189.8 59 102 107.3 185.7 107.3 186 0 0.3-38.8 67.5-86.1 149.5-84.3 146-86 149.1-86 154.3 0 5.1-0.1 5.2-3.1 5.4-3.1 0.3-4.7 2.9-113.5 191.3h-578.5l-288.9-500.5 139.1-241.3c76.6-132.6 141.6-245.4 144.6-250.5zm-272.1 501l148.5 257 257-257h279.5c1.6-6.5 3-11.2 4.1-14.5 1.2-3.2 3.9-9.3 6.1-13.5 2.2-4.1 6.1-10.4 8.8-14 2.7-3.5 8.3-9.9 12.7-14 4.3-4.2 10.7-9.6 14.3-12 3.6-2.4 10.5-6.2 15.5-8.5 4.9-2.4 12.8-5.2 17.5-6.4 4.7-1.1 12.8-2.5 18-3 5.9-0.5 13.3-0.5 19.5 0 5.5 0.6 12.7 1.7 16 2.5 3.3 0.9 8.5 2.5 11.5 3.6 3 1.1 9.3 4 14 6.5 4.7 2.5 10.9 6.4 13.9 8.7 3 2.3 8.7 7.5 12.8 11.6 4.1 4.2 9.9 11.2 12.8 15.5 2.9 4.4 7 11.9 9 16.5 2 4.7 4.5 11.7 5.5 15.5 1.1 3.9 2.4 11.8 2.9 17.5 0.6 6.9 0.6 14.2 0 21-0.5 5.8-1.8 13.7-2.9 17.5-1 3.9-3.5 10.9-5.5 15.5-2 4.7-6.1 12.2-9 16.5-2.9 4.4-8.7 11.4-12.8 15.5-4.1 4.2-9.8 9.4-12.8 11.7-3 2.3-8.8 6-12.9 8.2-4.1 2.3-10.2 5.1-13.5 6.5-3.3 1.3-11.2 3.4-17.5 4.6-9.9 2-13.5 2.2-26 1.8-11.5-0.4-16.5-1.1-24-3.2-5.2-1.5-12.9-4.3-17-6.2-4.1-1.9-11.1-5.9-15.5-8.8-4.4-2.9-11.9-9.4-16.8-14.4-4.8-5.1-10.7-12.2-13.1-15.9-2.4-3.7-5.5-9-6.8-11.8-1.4-2.7-3.4-7.7-4.6-11-1.2-3.2-2.6-7.9-3.2-10.2l-1-4.3h-259.5c-195.9 195.7-252.6 253.1-252.4 253.8 0.2 0.6 24.5 43 53.9 94.2l53.5 93h198.5l0.1-91.5c-15.2-5.2-23-8.4-27.1-10.4-4.1-2.1-11.1-6.5-15.5-9.8-4.4-3.3-10.9-9.1-14.3-12.9-3.5-3.7-8.3-9.8-10.7-13.4-2.4-3.5-6.2-10.3-8.4-15-2.2-4.6-5.2-12.7-6.6-18-2-7.1-2.8-12.7-3.2-23-0.5-11.1-0.2-15.3 1.5-24.5 1.2-6 3.3-14 4.7-17.7 1.4-3.7 3.8-9.3 5.4-12.5 1.6-3.2 5.1-8.9 7.9-12.8 2.7-3.8 8.5-10.5 12.8-14.8 4.3-4.3 11.5-10.2 15.9-13.2 4.4-2.9 11-6.7 14.7-8.4 3.8-1.7 10.5-4.1 15-5.5 4.6-1.3 13-2.9 18.8-3.6 8.2-1 12.9-1 21.5-0.1 6 0.6 14.6 2.1 19 3.2 4.4 1.2 12 4 17 6.3 4.9 2.3 12.5 6.7 16.9 9.7 4.3 3 11.7 9.5 16.4 14.4 4.7 5 10 11.4 11.8 14.3 1.9 2.9 4.9 8.3 6.8 12 1.8 3.7 4.2 9.5 5.3 12.7 1.2 3.3 2.3 7.5 2.7 9.3l0.6 3.2c355.4 0 359 0.1 359.2 2 0.2 1 34-56.3 77.3-131.1 42.3-73.2 77.1-133.5 77.2-134 0.2-0.4-43.9-77.5-98-171.2-76.5-132.7-98.3-169.7-98.5-167.5l-0.2 2.8h-138.6l-117.6 117.5c3.9 7 6.2 12 7.7 15.5 1.5 3.6 3.6 9.9 4.7 14 1.3 5 2.1 12.5 2.5 22 0.4 11.3 0.2 16.5-1.2 23.5-0.9 5-3 12.9-4.6 17.5-1.7 4.7-4.6 11.5-6.6 15-1.9 3.6-5.5 9.2-7.9 12.5-2.3 3.3-7.8 9.5-12.1 13.7-4.3 4.2-11 9.8-14.8 12.4-3.9 2.6-9.5 5.9-12.5 7.5-3 1.5-9.3 3.9-14 5.4-4.7 1.5-11.8 3.3-15.8 4.1-3.9 0.8-12.4 1.4-18.7 1.4-7.6 0-15-0.6-21.8-2-5.6-1.1-13.8-3.5-18.2-5.3-4.4-1.7-11.6-5.2-15.9-7.7-5.2-2.9-11.6-8-18.5-14.6-5.8-5.5-12.7-13.2-15.2-17-2.6-3.7-6.1-9.7-7.8-13.1-1.7-3.4-4-8.6-5-11.5-1.1-2.9-2.7-8-3.5-11.3-0.8-3.3-2-10.7-2.5-16.5-0.6-6.2-0.6-14.1-0.1-19.5 0.5-4.9 1.8-12.8 3-17.5 1.1-4.6 3.4-11.6 5.1-15.5 1.6-3.8 4.7-9.9 6.9-13.5 2.1-3.5 6.8-9.9 10.4-14.2 3.6-4.3 9.9-10.3 13.8-13.5 4-3.2 10-7.4 13.3-9.4 3.3-2 10-5.3 15-7.4 4.9-2 13.3-4.6 18.5-5.7 6.8-1.4 13.4-2 23-2 10.4 0 15.6 0.5 22.5 2.2 4.9 1.1 11.4 3 14.2 4.1 2.9 1.1 8.3 3.5 12 5.4 3.8 1.9 8.1 4.4 9.8 5.5l3 2 130.3-129.9 134.1-0.6-60.4-104.4-351.5-0.1v189.5l-208.9 209c4 7.8 6.3 13 7.6 16.5 1.4 3.6 3.3 10.9 4.4 16.3 1.1 5.7 1.9 14 1.9 20 0 5.6-0.7 14.3-1.5 19.2-0.9 5-2.8 12.4-4.2 16.5-1.4 4.2-4.4 11.1-6.7 15.5-2.3 4.4-6.2 10.8-8.8 14-2.5 3.3-7.9 9.4-11.9 13.4-4.1 4-11 9.7-15.4 12.7-4.4 2.9-11 6.7-14.8 8.4-3.7 1.7-10.6 4.2-15.5 5.6-4.8 1.4-13.4 3-19.2 3.7-8.1 0.9-13 0.9-21-0.1-5.8-0.6-14.1-2-18.5-3.2-4.4-1.1-13-4.4-19-7.3-6.1-3-14.4-8.1-18.5-11.4-4.1-3.2-10.2-8.8-13.5-12.3-3.3-3.6-8.2-9.8-10.9-14-2.8-4.1-6.4-10.6-8.2-14.5-1.8-3.8-4.4-10.8-5.7-15.5-1.4-4.6-3.1-13.4-3.7-19.5-0.9-8.3-0.9-13.5 0-21.5 0.6-5.7 1.8-12.9 2.6-16 0.9-3 2.4-7.8 3.5-10.7 1-2.9 3.3-8.1 5-11.5 1.7-3.4 5.5-9.6 8.3-13.7 2.8-4 9.4-11.4 14.7-16.5 5.5-5.1 13.2-11.2 18-14.1 4.6-2.7 12.2-6.4 16.9-8.1 4.7-1.8 13.2-4.2 19-5.4 8.9-1.8 12.5-2.1 24-1.6 8.7 0.4 16.3 1.3 21.5 2.6 4.4 1.2 10.9 3.2 14.5 4.5 3.6 1.4 10.5 4.9 15.5 7.9l9 5.5c53.5-53 97.2-96.5 131.7-130.8l62.8-62.6v-170.5l-164.5 0.1zm548.5-219c-3.3 1.5-8.9 5-12.5 7.6-3.5 2.7-8.4 7.6-10.8 10.9-2.5 3.3-5.8 8.7-7.3 12-1.6 3.3-3.5 8.7-4.4 12-0.8 3.3-1.5 10.1-1.5 15q0 9 2.1 16.5c1.1 4.2 3.4 10 5.1 13 1.7 3.1 4.9 7.8 7 10.5 2.2 2.8 6.6 7 9.7 9.4 3.1 2.5 8.7 5.9 12.6 7.7 3.8 1.7 9.5 3.8 12.5 4.5 3 0.8 9.3 1.4 14 1.4 4.7 0 11-0.6 14-1.4 3-0.7 8.6-2.7 12.5-4.5 3.8-1.7 9.6-5.1 12.8-7.6 3.2-2.4 7.8-7.2 10.3-10.5 2.5-3.3 5.8-8.7 7.4-12 1.6-3.3 3.6-8.7 4.5-12 0.8-3.3 1.5-9.9 1.5-14.7 0-4.8-0.5-11.1-1.1-14-0.6-2.9-2.8-8.9-4.9-13.3-2-4.4-5.9-10.6-8.6-13.9-2.7-3.2-7.6-7.8-10.9-10.2-3.3-2.3-8.5-5.3-11.5-6.7-3-1.4-9-3.2-13.3-4.1-4.2-0.8-10.3-1.5-13.5-1.5-3.1 0.1-8.9 0.8-12.7 1.6-3.9 0.8-9.7 2.8-13 4.3zm-389 127.9c-3.3 1.6-8.9 5.1-12.4 7.8-3.5 2.6-8.4 7.5-10.9 10.8-2.5 3.3-5.8 8.9-7.4 12.3-1.5 3.4-3.5 9.3-4.4 13-1.1 4.8-1.5 9.5-1.1 16.2 0.3 5.6 1.3 12.2 2.6 16 1.1 3.6 3.7 9.5 5.8 13 2.1 3.6 6.9 9.6 10.8 13.4 5.3 5.3 9.1 7.9 16 11.2 4.9 2.3 11.4 4.8 14.2 5.4 2.9 0.6 9.2 1 14 1.1 4.9 0 11.5-0.7 14.8-1.6 3.3-0.9 8.7-2.9 12-4.4 3.3-1.6 8.7-5 12-7.6 3.3-2.6 7.7-6.8 9.8-9.4 2.1-2.5 5.5-8.2 7.6-12.6 2.2-4.4 4.5-10.4 5.2-13.5 0.7-3 1.2-9.3 1.2-14 0-4.6-0.6-10.9-1.3-14-0.7-3-2.7-8.6-4.5-12.5-1.9-3.8-5.2-9.4-7.6-12.5-2.3-3-6.7-7.5-9.8-9.9-3.1-2.5-8.5-6-12.1-7.7-3.6-1.8-9.2-3.9-12.5-4.8-3.5-0.9-10-1.5-15.5-1.5-5.2 0.1-12 0.7-15 1.5-3 0.9-8.2 2.8-11.5 4.3zm608.5 55c-3 1.1-8.7 4.3-12.5 6.9-3.9 2.7-9.3 7.8-12.2 11.3-2.8 3.6-6.7 9.8-8.6 13.9-1.9 4.2-4 10.2-4.7 13.5-0.7 3.3-1.2 9.6-1.2 14 0.1 4.4 0.8 10.7 1.7 14 0.9 3.3 2.8 8.7 4.4 12 1.5 3.3 4.9 8.7 7.4 12 2.5 3.3 6.9 7.9 9.9 10.1 2.9 2.3 7.3 5.3 9.8 6.7 2.5 1.4 7.9 3.6 12 4.9 5.8 1.7 9.9 2.2 18 2.2 7.1 0 12.4-0.6 16.5-1.8 3.3-1 8.5-3.1 11.5-4.6 3-1.5 8-4.7 11.1-7.1 3.1-2.4 7.5-6.6 9.6-9.4 2.2-2.7 5.4-7.4 7.1-10.5 1.6-3 3.8-8.2 4.8-11.5 1.4-4.4 1.8-9.2 1.8-18.5 0-11-0.3-13.3-2.7-20-1.5-4.1-4.2-9.9-6-12.8-1.7-3-5.5-7.7-8.2-10.5-2.8-2.8-7.7-6.9-11-9.1-3.3-2.2-9.8-5.3-14.5-6.9-6.2-2.1-10.9-3-17.5-3.3-5.5-0.2-11.3 0.2-15 1.1-3.3 0.7-8.5 2.3-11.5 3.4zm-295.5 267.2c-4.7 2.3-9.5 5.9-14.6 10.9-4.5 4.5-9 10.2-11.2 14-1.9 3.6-4.5 9.7-5.7 13.5-1.7 5.4-2.2 9.5-2.2 17.5 0.1 7.9 0.6 12.3 2.2 17.5 1.2 3.9 3.7 9.7 5.5 13 1.8 3.3 6 8.9 9.2 12.4 3.2 3.5 8.9 8.3 12.8 10.7 3.8 2.3 11 5.5 16 7 8.2 2.5 10 2.7 20 2.2 8.2-0.3 12.7-1.1 17.5-2.9 3.6-1.3 9.2-3.9 12.5-5.9 3.2-1.9 8.9-6.4 12.5-10 3.8-3.9 8-9.4 10.2-13.5 2-3.8 4.6-10.6 5.8-15 1.1-4.6 2-11.1 2-15.5 0-4.3-0.9-10.9-2-15.5-1.2-4.4-3.8-11.1-5.8-14.9-2.3-4.4-6.4-9.7-11-14.3-5.8-5.8-9.1-8.1-16.5-11.7-5-2.4-11.6-4.9-14.5-5.5-2.8-0.6-9.4-1-14.5-1-5.4 0.1-11.7 0.8-15.2 1.8-3.3 0.9-9.1 3.2-13 5.2zm134.1 85.7c-0.9 3.7-3.7 11-6.2 16.2-2.5 5.3-6.5 12.5-8.9 16-2.4 3.6-8.6 10.7-13.7 15.7-5.1 5-12.7 11.3-16.8 13.9-4.1 2.7-10.4 6.2-14 7.8-3.6 1.7-9.9 4-14 5.2l-7.5 2.2-0.5 92.2h316.5c75.9-131.3 98.7-170.9 99.7-172.7l1.8-3.3h-334.6z"/>
		<path id="Path 1" class="s1" d="m471 46.7c79.5 0.2 210 0.2 290 0 80-0.1 15-0.2-144.5-0.2-159.5 0-225 0.1-145.5 0.2zm405.5 166c19.3 0.2 50.5 0.2 69.5 0 19-0.1 3.2-0.2-35-0.2-38.2 0-53.8 0.1-34.5 0.2zm-123.5 600c49.8 0.2 130.8 0.2 180 0 49.2-0.1 8.5-0.2-90.5-0.2-99 0-139.3 0.1-89.5 0.2zm-173.5 129.6c-0.3 0.6-0.4 21.7-0.3 46.7l0.3 45.5c0.8-72.5 0.9-93.5 0.7-93.5-0.1 0-0.5 0.6-0.7 1.3z"/>
		<path id="Path 2" class="s2" d="m757.5 233.3l-65 65.2c101.1-100.8 130.5-130.1 130.5-130.3 0-0.1-0.1-0.2-0.3-0.2-0.1 0-29.5 29.4-65.2 65.3zm-422.5 164.4l-29.5 29.8c46.1-45.7 59.5-59.1 59.5-59.3 0-0.1-0.1-0.2-0.3-0.2-0.1 0-13.5 13.4-29.7 29.7zm-2.5 279.6l-129 129.2c200.3-200 258.5-258.1 258.5-258.3 0-0.1-0.1-0.2-0.3-0.2-0.1 0-58.3 58.2-129.2 129.3z"/>
		<path id="Path 3" class="s3" d="m341 61.7c3.6 0.2 9 0.2 12 0 3-0.2 0.1-0.3-6.5-0.3-6.6 0-9.1 0.1-5.5 0.3zm51 0c2.5 0.2 6.1 0.2 8 0 1.9-0.2-0.1-0.4-4.5-0.4-4.4 0-6 0.2-3.5 0.4zm52.5 0c2.2 0.2 6 0.2 8.5 0 2.5-0.2 0.7-0.4-4-0.4-4.7 0-6.7 0.2-4.5 0.4zm99.7 94.5l0.3 95.3 0.5-189.5 352.5-0.5-353.5-0.5zm300.8 11.5c11.8 0.2 30.7 0.2 42 0 11.2-0.2 1.6-0.3-21.5-0.3-23.1 0-32.4 0.1-20.5 0.3zm-423.6 143.5l-9.9 10.2c15.9-15.5 20.5-20.1 20.5-20.2 0-0.1-0.2-0.3-0.3-0.3-0.2 0-4.8 4.7-10.3 10.3zm543.6 546.5c2.4 0.2 6.7 0.2 9.5 0 2.7-0.2 0.7-0.4-4.5-0.4-5.3 0-7.5 0.2-5 0.4zm-252 177c2.4 0.2 6.7 0.2 9.5 0 2.7-0.2 0.7-0.4-4.5-0.4-5.3 0-7.5 0.2-5 0.4zm148.5 0c4.9 0.2 13.2 0.2 18.5 0 5.2-0.2 1.1-0.3-9-0.3-10.2 0-14.5 0.1-9.5 0.3z"/>
		<path id="Path 4" class="s4" d="m274 798.8l-47.5 47.7c74-73.6 95.5-95.1 95.5-95.2 0-0.2-0.1-0.3-0.3-0.3-0.1 0-21.6 21.5-47.7 47.8z"/>
		<path id="Path 5" class="s5" d="m381.5 351.3l-17 17.2c26.7-26.4 34.5-34.1 34.5-34.3 0-0.1-0.1-0.2-0.3-0.2-0.1 0-7.9 7.8-17.2 17.2zm321 506.5c1.6 0.2 4.8 0.2 7 0 2.2-0.2 0.9-0.4-3-0.4-3.9 0-5.6 0.2-4 0.4zm-168.5 169.3v7l-199.5 0.5 200.5 0.5c0-11.6-0.2-15-0.5-15-0.3 0-0.5 3.1-0.5 7zm64 7.7c3.6 0.2 9 0.2 12 0 3-0.2 0.1-0.3-6.5-0.3-6.6 0-9.1 0.1-5.5 0.3zm62 0c3 0.2 8.2 0.2 11.5 0 3.3-0.2 0.8-0.3-5.5-0.3-6.3 0-9 0.1-6 0.3zm151 0c1.9 0.2 5.3 0.2 7.5 0 2.2-0.2 0.6-0.4-3.5-0.4-4.1 0-5.9 0.2-4 0.4z"/>
		<path id="Path 6" class="s6" d="m808 245.8l-33.5 33.7c52.3-51.9 67.5-67.1 67.5-67.3 0-0.1-0.1-0.2-0.3-0.2-0.1 0-15.3 15.2-33.7 33.7zm-289.5 31.5l-26 26.3c40.7-40.3 52.5-52.1 52.5-52.3 0-0.1-0.1-0.2-0.3-0.2-0.1 0-11.9 11.8-26.2 26.2zm-163.5 163.5l-14.5 14.8c22.9-22.5 29.5-29.1 29.5-29.3 0-0.1-0.1-0.2-0.3-0.2-0.1 0-6.7 6.6-14.7 14.7zm96.5 180.5l-14 14.3c22.1-21.7 28.5-28.1 28.5-28.3 0-0.1-0.1-0.2-0.3-0.2-0.1 0-6.5 6.4-14.2 14.2z"/>
		<path id="Path 7" class="s7" d="m377.5 61.7c1.6 0.2 4.8 0.2 7 0 2.2-0.2 0.9-0.4-3-0.4-3.9 0-5.6 0.2-4 0.4zm108.5 0c2.5 0.2 6.8 0.2 9.5 0 2.8-0.2 0.7-0.3-4.5-0.3-5.2 0-7.5 0.1-5 0.3zm433 106c6.9 0.2 18.6 0.2 26 0 7.4-0.1 1.8-0.3-12.5-0.3-14.3 0-20.4 0.2-13.5 0.3zm-246.5 690c5.5 0.2 14 0.2 19 0 5-0.1 0.5-0.3-10-0.3-10.5 0-14.5 0.2-9 0.3zm43.5 0c1.9 0.2 5.3 0.2 7.5 0 2.2-0.2 0.6-0.4-3.5-0.4-4.1 0-5.9 0.2-4 0.4zm96 0c2.5 0.2 6.8 0.2 9.5 0 2.8-0.2 0.7-0.3-4.5-0.3-5.2 0-7.5 0.1-5 0.3zm27 0c2.5 0.2 6.8 0.2 9.5 0 2.8-0.2 0.7-0.3-4.5-0.3-5.2 0-7.5 0.1-5 0.3zm32 0c4.7 0.2 12.8 0.2 18 0 5.2-0.1 1.4-0.3-8.5-0.3-9.9 0-14.2 0.2-9.5 0.3zm43 0c1.9 0.2 5.3 0.2 7.5 0 2.2-0.2 0.6-0.4-3.5-0.4-4.1 0-5.9 0.2-4 0.4zm67.5-0.1c1.6 0.2 6.3 0.5 10.3 0.6 3.9 0.2 7.2 0 7.2-0.5 0-0.4-4.6-0.6-10.3-0.5-5.6 0-8.8 0.3-7.2 0.4z"/>
		<path id="Path 8" class="s8" d="m481.5 314.3l-11 11.2c17.4-17.1 22.5-22.1 22.5-22.3 0-0.1-0.1-0.2-0.3-0.2-0.1 0-5.2 5.1-11.2 11.2zm-68.5 68.5l-43.5 43.8c67.8-67.4 87.5-87.1 87.5-87.3 0-0.1-0.1-0.2-0.3-0.2-0.1 0-19.8 19.7-43.7 43.7zm-30.5 307.6l-29 29.2c45.3-45 58.5-58.1 58.5-58.3 0-0.1-0.1-0.2-0.3-0.2-0.1 0-13.3 13.2-29.2 29.2z"/>
		<path id="Path 9" class="s9" d="m753 300.5c-4.1 4.1-7.3 7.5-7 7.5 0.3 0 3.9-3.4 8-7.5 4.1-4.1 7.2-7.5 6.9-7.5-0.2 0-3.8 3.4-7.9 7.5z"/>
		<path id="Path 10" class="s10" d="m767.5 286.3l-7 7.2c11.3-10.9 14.5-14.1 14.5-14.3 0-0.1-0.1-0.2-0.3-0.2-0.1 0-3.4 3.3-7.2 7.2z"/>
		<path id="Path 11" class="s11" d="m465.5 267.3l-34 34.2c53.1-52.7 68.5-68.1 68.5-68.3 0-0.1-0.1-0.2-0.3-0.2-0.1 0-15.5 15.4-34.2 34.2zm268.5 52.5l-11.5 11.8c18.2-17.8 23.5-23.1 23.5-23.3 0-0.1-0.1-0.2-0.3-0.2-0.1 0-5.4 5.3-11.7 11.7z"/>
		<path id="Path 12" class="s12" d="m757.5 232.3l-65 65.2c101.1-100.8 130.5-130.1 130.5-130.3 0-0.1-0.1-0.2-0.3-0.2-0.1 0-29.5 29.4-65.2 65.3zm-353 371.9l-56 56.3c87.2-86.8 112.5-112.1 112.5-112.2 0-0.2-0.1-0.3-0.3-0.3-0.1 0-25.4 25.3-56.2 56.3zm-74 74l-9 9.2c14.3-14 18.5-18.1 18.5-18.2 0-0.2-0.1-0.3-0.3-0.3-0.1 0-4.3 4.2-9.2 9.3zm-117.5 117.5l-9.5 9.7c15.1-14.7 19.5-19.1 19.5-19.2 0-0.2-0.1-0.3-0.3-0.3-0.1 0-4.5 4.4-9.7 9.8z"/>
		<path id="Path 13" class="s13" d="m463.5 332.3l-7 7.2c11.3-10.9 14.5-14.1 14.5-14.3 0-0.1-0.1-0.2-0.3-0.2-0.1 0-3.4 3.3-7.2 7.2zm-42 319.1l-10 10.2c15.9-15.5 20.5-20.1 20.5-20.3 0-0.1-0.1-0.2-0.3-0.2-0.1 0-4.7 4.6-10.2 10.2z"/>
		<path id="Path 14" class="s14" d="m272 736.8l-49.5 49.7c77.1-76.7 99.5-99.1 99.5-99.2 0-0.2-0.1-0.3-0.3-0.3-0.1 0-22.5 22.4-49.7 49.8z"/>
		<path id="Path 15" class="s15" d="m759 1034.7c3 0.2 7.5 0.2 10 0 2.5-0.2 0-0.3-5.5-0.3-5.5 0-7.5 0.1-4.5 0.3zm80 0c2.5 0.2 6.8 0.2 9.5 0 2.8-0.2 0.7-0.3-4.5-0.3-5.2 0-7.5 0.1-5 0.3z"/>
		<path id="Path 16" class="s16" d="m731 1034.7c2.5 0.2 6.8 0.2 9.5 0 2.8-0.2 0.7-0.3-4.5-0.3-5.2 0-7.5 0.1-5 0.3z"/>
		<path id="Path 17" class="s17" d="m328 403.8l-15.5 15.7c24.4-24 31.5-31.1 31.5-31.3 0-0.1-0.1-0.2-0.3-0.2-0.1 0-7.2 7.1-15.7 15.7z"/>
		<path id="Path 18" class="s18" d="m358.5 373c-8.3 8.3-14.8 15-14.5 15 0.3 0 7.2-6.7 15.5-15 8.2-8.2 14.7-15 14.5-15-0.3 0-7.3 6.8-15.5 15z"/>
	</g>
</svg>