<svg viewBox="0 0 24 24" xmlns="http://www.w3.org/2000/svg">
    <defs></defs>
    <ellipse style="stroke: rgb(0, 0, 0); fill: rgb(1, 53, 103); stroke-width: 0px;" cx="11.967" cy="11.964" rx="11.729" ry="11.729"></ellipse>
    <path fill="#CA0103" opacity="1.000000" stroke="none" d="M 16.122 9.884 C 17.69 9.037 19.26 8.19 20.829 7.344 C 20.984 7.261 21.143 7.187 21.307 7.103 C 21.497 7.896 21.454 8.017 20.849 8.427 C 19.471 9.359 18.09 10.29 16.662 11.257 C 15.734 11.891 14.853 12.492 13.973 13.092 C 12.467 14.099 10.961 15.103 9.455 16.111 C 8.315 16.875 7.177 17.644 6 18.438 C 4.995 16.288 4.012 14.176 3.024 12.058 C 3.462 11.954 3.777 12.071 4.094 12.329 C 5.024 13.084 5.985 13.801 6.923 14.548 C 7.128 14.711 7.283 14.739 7.519 14.608 C 9.433 13.55 11.354 12.507 13.326 11.429 C 14.292 10.893 15.208 10.388 16.122 9.884 Z" style=""></path>
    <path fill="#FCFCFD" opacity="1.000000" stroke="none" d="M 16.106 9.85 C 15.208 10.388 14.292 10.893 13.351 11.411 C 13.046 10.704 12.769 9.986 12.466 9.195 C 12.207 9.738 11.965 10.184 11.783 10.653 C 11.632 11.041 11.376 11.278 11.015 11.467 C 9.879 12.061 8.758 12.681 7.602 13.27 C 7.575 13.25 7.581 13.253 7.581 13.253 C 8.519 10.795 9.456 8.337 10.444 5.849 C 10.675 5.817 10.855 5.815 11.035 5.817 C 12.203 5.83 13.371 5.843 14.539 5.858 C 15.056 7.178 15.573 8.496 16.106 9.85 Z" style=""></path>
    <path fill="#FDFDFD" opacity="1.000000" stroke="none" d="M 13.983 13.124 C 14.853 12.492 15.734 11.891 16.643 11.28 C 17.406 13.116 18.141 14.963 18.904 16.876 C 17.767 16.876 16.683 16.885 15.601 16.863 C 15.499 16.861 15.356 16.676 15.305 16.548 C 14.858 15.422 14.429 14.289 13.983 13.124 Z" style=""></path>
    <path fill="#00255C" opacity="1.000000" stroke="none" d="M 14.519 5.824 C 13.371 5.843 12.203 5.83 11.035 5.817 C 10.855 5.815 10.675 5.817 10.452 5.818 C 10.504 5.782 10.594 5.714 10.687 5.714 C 11.891 5.708 13.094 5.71 14.299 5.716 C 14.365 5.716 14.431 5.764 14.519 5.824 Z" style=""></path>
  </svg>
