<?xml version="1.0" encoding="UTF-8"?>
<svg version="1.1" viewBox="0 0 1000 1000" width="1280" height="1280" xmlns="http://www.w3.org/2000/svg">
<path transform="translate(806,55)" d="m0 0 5 1 9 10 17 17 7 8 10 10 7 8 16 17 9 10 15 15 7 8 11 11 7 8 15 16 3 4v5l-8 7-10 10-8 7-16 16-8 7-16 15-13 12-11 11-8 7-12 12-8 7-17 16-8 7-4-2-22-22-7-8-11-11-7-8-28-30-14-14-7-8-9-9-7-8-16-17-6-7 1-4 13-12 18-18h2l1-3 8-7 6-6h2v-2l8-7 15-14 8-7 21-21 8-7 9-9 8-7z" fill="#FDC726"/>
<path transform="translate(372,408)" d="m0 0h199l1 1v198l-2 1h-198z" fill="#424241"/>
<path transform="translate(92,408)" d="m0 0h199l1 1v198l-2 1h-198z" fill="#424241"/>
<path transform="translate(653,408)" d="m0 0h198l1 1v198l-2 1h-198v-199z" fill="#424241"/>
<path transform="translate(373,148)" d="m0 0h198l1 1v198l-2 1h-198v-199z" fill="#424241"/>
<path transform="translate(93,148)" d="m0 0h198l1 1v198l-2 1h-198v-199z" fill="#FAC426"/>
<path transform="translate(652,664)" d="m0 0h199l1 1v198l-5 1h-194l-1-1z" fill="#424241"/>
<path transform="translate(372,664)" d="m0 0h199l1 1v198l-10 1h-189l-1-1z" fill="#FBC426"/>
<path transform="translate(92,664)" d="m0 0h199l1 1v198l-10 1h-189l-1-1z" fill="#424241"/>
</svg>
